<?xml version="1.0" encoding="UTF-8" standalone="no"?>
<svg width="109px" height="138px" viewBox="0 0 109 138" version="1.1" xmlns="http://www.w3.org/2000/svg" xmlns:xlink="http://www.w3.org/1999/xlink">
    <!-- Generator: Sketch 41.2 (35397) - http://www.bohemiancoding.com/sketch -->
    <title>Group</title>
    <desc>Created with Sketch.</desc>
    <defs>
        <path d="M102.531266,0.918373737 L105.469383,0.918373737 C105.752898,1.04089287 106.034165,1.20272861 106.317841,1.40357338 C111.161855,4.8386759 105.162576,13.3263345 99.1655462,21.5780605 C93.1636971,29.8298187 82.0947158,41.9902621 78.6313321,48.8653846 C76.3675472,53.3653916 73.7341034,83.513828 75.6820861,94.6442115 C77.5277463,105.192135 80.5285102,115.280697 80.5285102,122.617437 C80.5285102,129.959172 78.445918,138.208513 72.2235214,137.520356 C64.4201859,136.656253 68.064923,124.223028 68.2973573,122.617437 C68.5277034,121.016518 67.3049736,115.807408 66.453946,111.385707 C66.0270607,109.16377 61.3574467,98.2481016 56.0721154,91.3601716 C50.7867841,84.4722416 41.5975789,80.609365 38.7788462,80.5834534 C33.5440581,80.5353318 34.1941075,95.2239054 33.0783302,97.0961538 C31.283751,100.106256 29.6147859,101.448572 22.9251112,102.594157 C16.2306175,103.74232 11.8511503,100.533554 11.1609151,97.3225318 C10.7705797,95.5298762 10.9263926,93.4254475 14.385118,91.3601716 C17.848341,89.2926401 20.3819874,90.4428978 22.0022811,89.7568357 C23.6129368,89.0636841 23.6177558,84.7091714 24.0802149,80.5834534 C24.286738,78.7325052 26.1188438,62.8269231 33.0783302,62.8269231 C40.0378166,62.8269231 48.1535011,70.4019689 48.7355769,69.2395249 C49.7912126,67.1313505 49.1041429,59.4133081 45.6381891,53.451109 C42.1772149,47.4908435 35.9498387,43.8223928 23.9511201,32.8120461 C14.6676584,24.2923401 7.73128815,18.5239722 7.63622332,13.906007 C7.63622332,13.906007 7.63622332,11.4230769 9.41424139,10.1173747 C15.3639422,5.74816265 23.6187728,18.997513 31.5661951,25.4798174 C43.1024545,34.877483 48.415996,42.8034504 61.7885989,41.7522833 C70.5562075,41.068638 81.395164,28.2288996 89.0123271,17.2235477 C94.6678539,9.05004693 98.7957716,2.39226015 102.531266,0.918373737 Z" id="path-1"></path>
    </defs>
    <g id="Page-1" stroke="none" stroke-width="1" fill="none" fill-rule="evenodd">
        <g id="180---iPhone-6-Plus" transform="translate(-36.000000, -21.000000)">
            <g id="Group" transform="translate(36.000000, 21.000000)">
                <mask id="mask-2" fill="white">
                    <use xlink:href="#path-1"></use>
                </mask>
                <use id="path0_fill" fill="#8F2684" xlink:href="#path-1"></use>
                <path d="M48.2626642,28.1797971 C48.2626642,21.7249642 53.433404,16.5 59.8164164,16.5 C66.199461,16.5 71.3726102,21.7249642 71.3726102,28.1797971 C71.3726102,34.6252204 66.199461,39.8572096 59.8164164,39.8572096 C53.433404,39.8572096 48.2626642,34.6252204 48.2626642,28.1797971 Z" id="Mask" fill="#8F2684"></path>
                <path d="M0,57.7951817 C0,51.3403488 5.1707398,46.1153846 11.5537522,46.1153846 C17.9367968,46.1153846 23.1099461,51.3403488 23.1099461,57.7951817 C23.1099461,64.240605 17.9367968,69.4725942 11.5537522,69.4725942 C5.1707398,69.4725942 0,64.240605 0,57.7951817 Z" id="Mask" fill="#8F2684"></path>
            </g>
        </g>
    </g>
</svg>